<svg xmlns="http://www.w3.org/2000/svg" width="679.4190063476562" height="457.5433349609375" viewBox="-481.8697814941406 -167.47250366210938 679.4190063476562 457.5433349609375"><title>Neo4j Graph Visualization</title><desc>Created using Neo4j (http://www.neo4j.com/)</desc><g class="layer relationships"><g class="relationship" transform="translate(-53.772405721127654 42.3366454339554) rotate(210.7873518078577)"><path class="b-outline" fill="#A5ABB6" stroke="none" d="M 24.018736134675446,6.953439040707552 L 24.277555179777966,5.987513214418485 A 566.2358578719414 566.2358578719414 0 0 0 148.91791482292953,24.85739160298033 L 148.87921670077878,25.856642550111246 A 567.2358578719414 567.2358578719414 0 0 1 24.018736134675446,6.953439040707552 Z M 186.90510715338715,26.053712316981773 L 186.8767680988064,25.05411394864302 A 566.2358578719414 566.2358578719414 0 0 0 311.7060142454533,7.477115660167954 L 310.95963356466467,4.571446050706893 L 318.6103067809938,6.219839006571471 L 312.7011884865047,11.351341806116034 L 311.9548078057161,8.445672196654973 A 567.2358578719414 567.2358578719414 0 0 1 186.90510715338715,26.053712316981773"/><text text-anchor="middle" pointer-events="none" font-size="8px" fill="#000000" x="167.89310128865466" y="28.773921522056185" transform="rotate(180 167.89310128865466 25.773921522056185)" font-family="Helvetica Neue, Helvetica, Arial, sans-serif">生产销售</text></g><g class="relationship" transform="translate(7.215694685588975 -92.4017925893392) rotate(474.3534427341253)"><path class="b-outline" fill="#A5ABB6" stroke="none" d="M 24.018736134675446,-6.953439040707552 L 24.277555179777966,-5.987513214418485 A 186.7051408735935 186.7051408735935 0 0 1 59.45365084085908,-11.885900463324504 L 59.38323633296691,-12.883418281249732 A 187.7051408735935 187.7051408735935 0 0 0 24.018736134675446,-6.953439040707552 Z M 81.42779166864509,-13.141654639567406 L 81.38076370675151,-12.14276106625735 A 186.7051408735935 186.7051408735935 0 0 1 116.68537853908936,-7.070005440775659 L 115.97701598073019,-4.154834350442393 L 123.60550484292685,-5.903021319659795 L 117.62986195023493,-10.956900227886681 L 116.92149939187576,-8.041729137553414 A 187.7051408735935 187.7051408735935 0 0 0 81.42779166864509,-13.141654639567406"/><text text-anchor="middle" pointer-events="none" font-size="8px" fill="#000000" x="70.40757622108615" y="-9.836493360295947" transform="rotate(180 70.40757622108615 -12.836493360295947)" font-family="Helvetica Neue, Helvetica, Arial, sans-serif">投资</text></g><g class="relationship" transform="translate(-53.772405721127654 42.3366454339554) rotate(308.66635741271926)"><path class="b-outline" fill="#A5ABB6" stroke="none" d="M 6.953439040707552 24.018736134675446 L 17.306200844808384 62.65576918623819 A 17.916697508022974 17.916697508022974 0 1 1 -17.306200844808384 62.65576918623819 L -8.765172356425198 30.780216918698923 L -4.901469051268926 31.815493099109005 L -6.4704761275630185 24.148145657226706 L -11.662949835292403 30.00375978339136 L -7.79924653013613 31.039035963801442 L -16.340275018519314 62.91458823134071 A 16.916697508022974 16.916697508022974 0 1 0 16.340275018519314 62.91458823134071 L 5.987513214418485 24.277555179777966 Z"/><text text-anchor="middle" pointer-events="none" font-size="8px" fill="#000000" x="0" y="94.20964923467838" font-family="Helvetica Neue, Helvetica, Arial, sans-serif">投资</text></g><g class="relationship" transform="translate(7.215694685588975 -92.4017925893392) rotate(474.3534427341253)"><path class="b-outline" fill="#A5ABB6" stroke="none" d="M 24.018736134675446,6.953439040707552 L 24.277555179777966,5.987513214418485 A 186.7051408735935 186.7051408735935 0 0 0 55.477540242105604,11.56250375142406 L 55.38582953111935,12.558289443975639 A 187.7051408735935 187.7051408735935 0 0 1 24.018736134675446,6.953439040707552 Z M 85.43171779876226,12.9102557526858 L 85.36335890202331,11.91259495800827 A 186.7051408735935 186.7051408735935 0 0 0 116.68537853908936,7.070005440775659 L 115.97701598073019,4.154834350442393 L 123.60550484292685,5.903021319659795 L 117.62986195023493,10.956900227886681 L 116.92149939187576,8.041729137553414 A 187.7051408735935 187.7051408735935 0 0 1 85.43171779876226,12.9102557526858"/><text text-anchor="middle" pointer-events="none" font-size="8px" fill="#000000" x="70.40757622108619" y="15.836493360295947" transform="rotate(180 70.40757622108619 12.836493360295947)" font-family="Helvetica Neue, Helvetica, Arial, sans-serif">任职于</text></g><g class="relationship" transform="translate(-382.8237403217018 39.762860102278594) rotate(387.7474164621451)"><path class="b-outline" fill="#A5ABB6" stroke="none" d="M 25 0.5 L 83.41394228615064 0.5 L 83.41394228615064 -0.5 L 25 -0.5 Z M 105.41394228615064 0.5 L 163.8278845723013 0.5 L 163.8278845723013 3.5 L 170.8278845723013 0 L 163.8278845723013 -3.5 L 163.8278845723013 -0.5 L 105.41394228615064 -0.5 Z"/><text text-anchor="middle" pointer-events="none" font-size="8px" fill="#000000" x="94.41394228615064" y="3" font-family="Helvetica Neue, Helvetica, Arial, sans-serif">拥有</text></g><g class="relationship" transform="translate(-53.772405721127654 42.3366454339554) rotate(510.3652577320141)"><path class="b-outline" fill="#A5ABB6" stroke="none" d="M 25 0.5 L 75.08974677923253 0.5 L 75.08974677923253 -0.5 L 25 -0.5 Z M 97.08974677923253 0.5 L 147.17949355846505 0.5 L 147.17949355846505 3.5 L 154.17949355846505 0 L 147.17949355846505 -3.5 L 147.17949355846505 -0.5 L 97.08974677923253 -0.5 Z"/><text text-anchor="middle" pointer-events="none" font-size="8px" fill="#000000" x="86.08974677923253" y="3" transform="rotate(180 86.08974677923253 0)" font-family="Helvetica Neue, Helvetica, Arial, sans-serif">拥有</text></g><g class="relationship" transform="translate(-382.8237403217018 39.762860102278594) rotate(321.57988373935905)"><path class="b-outline" fill="#A5ABB6" stroke="none" d="M 25 0.5 L 128.90907058565222 0.5 L 128.90907058565222 -0.5 L 25 -0.5 Z M 150.90907058565222 0.5 L 254.81814117130443 0.5 L 254.81814117130443 3.5 L 261.81814117130443 0 L 254.81814117130443 -3.5 L 254.81814117130443 -0.5 L 150.90907058565222 -0.5 Z"/><text text-anchor="middle" pointer-events="none" font-size="8px" fill="#000000" x="139.90907058565222" y="3" font-family="Helvetica Neue, Helvetica, Arial, sans-serif">拥有</text></g><g class="relationship" transform="translate(-53.772405721127654 42.3366454339554) rotate(240.01279047981927)"><path class="b-outline" fill="#A5ABB6" stroke="none" d="M 24.018736134675446,-6.953439040707552 L 24.277555179777966,-5.987513214418485 A 305.7871200403893 305.7871200403893 0 0 1 89.87293095602908,-16.10667805353944 L 89.82862511791706,-17.105696067745953 A 306.7871200403893 306.7871200403893 0 0 0 24.018736134675446,-6.953439040707552 Z M 111.85902396275924,-17.290895279390043 L 111.83151974951727,-16.2912735918232 A 305.7871200403893 305.7871200403893 0 0 1 177.58774706917345,-7.276319961626505 L 176.86011673471629,-4.365898326128001 L 184.50000260774613,-6.063586120476246 L 178.55792084844964,-11.156882142291176 L 177.83029051399248,-8.246460506792673 A 306.7871200403893 306.7871200403893 0 0 0 111.85902396275924,-17.290895279390043"/><text text-anchor="middle" pointer-events="none" font-size="8px" fill="#000000" x="100.84636466635635" y="-13.896134617911628" transform="rotate(180 100.84636466635635 -16.896134617911628)" font-family="Helvetica Neue, Helvetica, Arial, sans-serif">拥有</text></g><g class="relationship" transform="translate(-201.13968367313524 201.99185148916945) rotate(221.7622445315037)"><path class="b-outline" fill="#A5ABB6" stroke="none" d="M 25 0.5 L 107.28602350709978 0.5 L 107.28602350709978 -0.5 L 25 -0.5 Z M 129.2860235070998 0.5 L 211.57204701419957 0.5 L 211.57204701419957 3.5 L 218.57204701419957 0 L 211.57204701419957 -3.5 L 211.57204701419957 -0.5 L 129.2860235070998 -0.5 Z"/><text text-anchor="middle" pointer-events="none" font-size="8px" fill="#000000" x="118.28602350709978" y="3" transform="rotate(180 118.28602350709978 0)" font-family="Helvetica Neue, Helvetica, Arial, sans-serif">涉及</text></g><g class="relationship" transform="translate(-201.13968367313524 201.99185148916945) rotate(312.7080803672195)"><path class="b-outline" fill="#A5ABB6" stroke="none" d="M 25 0.5 L 94.13574392380842 0.5 L 94.13574392380842 -0.5 L 25 -0.5 Z M 116.13574392380842 0.5 L 185.27148784761684 0.5 L 185.27148784761684 3.5 L 192.27148784761684 0 L 185.27148784761684 -3.5 L 185.27148784761684 -0.5 L 116.13574392380842 -0.5 Z"/><text text-anchor="middle" pointer-events="none" font-size="8px" fill="#000000" x="105.13574392380842" y="3" font-family="Helvetica Neue, Helvetica, Arial, sans-serif">涉及</text></g><g class="relationship" transform="translate(-201.13968367313524 201.99185148916945) rotate(382.77617429613514)"><path class="b-outline" fill="#A5ABB6" stroke="none" d="M 25 0.5 L 61.803355871108124 0.5 L 61.803355871108124 -0.5 L 25 -0.5 Z M 83.80335587110812 0.5 L 120.60671174221625 0.5 L 120.60671174221625 3.5 L 127.60671174221625 0 L 120.60671174221625 -3.5 L 120.60671174221625 -0.5 L 83.80335587110812 -0.5 Z"/><text text-anchor="middle" pointer-events="none" font-size="8px" fill="#000000" x="72.80335587110812" y="3" font-family="Helvetica Neue, Helvetica, Arial, sans-serif">采用</text></g><g class="relationship" transform="translate(-53.772405721127654 42.3366454339554) rotate(339.89798035579383)"><path class="b-outline" fill="#A5ABB6" stroke="none" d="M 25 0.5 L 58.56498679420817 0.5 L 58.56498679420817 -0.5 L 25 -0.5 Z M 80.56498679420817 0.5 L 114.12997358841633 0.5 L 114.12997358841633 3.5 L 121.12997358841633 0 L 114.12997358841633 -3.5 L 114.12997358841633 -0.5 L 80.56498679420817 -0.5 Z"/><text text-anchor="middle" pointer-events="none" font-size="8px" fill="#000000" x="69.56498679420817" y="3" font-family="Helvetica Neue, Helvetica, Arial, sans-serif">发布</text></g><g class="relationship" transform="translate(-53.772405721127654 42.3366454339554) rotate(180.44814900923683)"><path class="b-outline" fill="#A5ABB6" stroke="none" d="M 21.40063509461097,12.933012701892217 L 21.90063509461097,12.06698729810778 A 284.04759045511554 284.04759045511554 0 0 0 149.98290366808277,49.77980561348318 L 149.93382201021078,50.778600382622756 A 285.04759045511554 285.04759045511554 0 0 1 21.40063509461097,12.933012701892217 Z M 171.96578953414746,51.00870023642227 L 171.9375789493846,50.0090982341697 A 284.04759045511554 284.04759045511554 0 0 0 300.77956190277837,14.979573303720947 L 299.3341513147709,12.350735493570621 L 307.15441855779704,12.045088233395287 L 302.70677602012165,18.484690383921382 L 301.2613654321142,15.855852573771056 A 285.04759045511554 285.04759045511554 0 0 1 171.96578953414746,51.00870023642227"/><text text-anchor="middle" pointer-events="none" font-size="8px" fill="#000000" x="160.95280337289833" y="53.60663125842291" transform="rotate(180 160.95280337289833 50.60663125842291)" font-family="Helvetica Neue, Helvetica, Arial, sans-serif">隶属</text></g><g class="relationship" transform="translate(-382.8237403217018 39.762860102278594) rotate(431.5297082039843)"><path class="b-outline" fill="#A5ABB6" stroke="none" d="M 6.953439040707552 24.018736134675446 L 17.306200844808384 62.65576918623819 A 17.916697508022974 17.916697508022974 0 1 1 -17.306200844808384 62.65576918623819 L -8.765172356425198 30.780216918698923 L -4.901469051268926 31.815493099109005 L -6.4704761275630185 24.148145657226706 L -11.662949835292403 30.00375978339136 L -7.79924653013613 31.039035963801442 L -16.340275018519314 62.91458823134071 A 16.916697508022974 16.916697508022974 0 1 0 16.340275018519314 62.91458823134071 L 5.987513214418485 24.277555179777966 Z"/><text text-anchor="middle" pointer-events="none" font-size="8px" fill="#000000" x="0" y="94.20964923467838" font-family="Helvetica Neue, Helvetica, Arial, sans-serif">隶属</text></g><g class="relationship" transform="translate(-53.772405721127654 42.3366454339554) rotate(332.17678815134434)"><path class="b-outline" fill="#A5ABB6" stroke="none" d="M 6.953439040707552 24.018736134675446 L 17.306200844808384 62.65576918623819 A 17.916697508022974 17.916697508022974 0 1 1 -17.306200844808384 62.65576918623819 L -8.765172356425198 30.780216918698923 L -4.901469051268926 31.815493099109005 L -6.4704761275630185 24.148145657226706 L -11.662949835292403 30.00375978339136 L -7.79924653013613 31.039035963801442 L -16.340275018519314 62.91458823134071 A 16.916697508022974 16.916697508022974 0 1 0 16.340275018519314 62.91458823134071 L 5.987513214418485 24.277555179777966 Z"/><text text-anchor="middle" pointer-events="none" font-size="8px" fill="#000000" x="0" y="94.20964923467838" font-family="Helvetica Neue, Helvetica, Arial, sans-serif">隶属</text></g><g class="relationship" transform="translate(-382.8237403217018 39.762860102278594) rotate(360.44814900923683)"><path class="b-outline" fill="#A5ABB6" stroke="none" d="M 25 0.5 L 150.03070015452477 0.5 L 150.03070015452477 -0.5 L 25 -0.5 Z M 172.03070015452477 0.5 L 297.06140030904953 0.5 L 297.06140030904953 3.5 L 304.06140030904953 0 L 297.06140030904953 -3.5 L 297.06140030904953 -0.5 L 172.03070015452477 -0.5 Z"/><text text-anchor="middle" pointer-events="none" font-size="8px" fill="#000000" x="161.03070015452477" y="3" font-family="Helvetica Neue, Helvetica, Arial, sans-serif">隶属</text></g><g class="relationship" transform="translate(-53.772405721127654 42.3366454339554) rotate(240.01279047981927)"><path class="b-outline" fill="#A5ABB6" stroke="none" d="M 24.018736134675446,6.953439040707552 L 24.277555179777966,5.987513214418485 A 305.7871200403893 305.7871200403893 0 0 0 89.87293095602907,16.10667805353944 L 89.82862511791704,17.105696067745953 A 306.7871200403893 306.7871200403893 0 0 1 24.018736134675446,6.953439040707552 Z M 111.8590239627593,17.290895279390043 L 111.83151974951734,16.2912735918232 A 305.7871200403893 305.7871200403893 0 0 0 177.58774706917345,7.276319961626505 L 176.86011673471629,4.365898326128001 L 184.50000260774613,6.063586120476246 L 178.55792084844964,11.156882142291176 L 177.83029051399248,8.246460506792673 A 306.7871200403893 306.7871200403893 0 0 1 111.8590239627593,17.290895279390043"/><text text-anchor="middle" pointer-events="none" font-size="8px" fill="#000000" x="100.84636466635637" y="19.896134617911628" transform="rotate(180 100.84636466635637 16.896134617911628)" font-family="Helvetica Neue, Helvetica, Arial, sans-serif">属于</text></g><g class="relationship" transform="translate(-53.772405721127654 42.3366454339554) rotate(180.44814900923683)"><path class="b-outline" fill="#A5ABB6" stroke="none" d="M 21.40063509461097,-12.933012701892217 L 21.90063509461097,-12.06698729810778 A 284.04759045511554 284.04759045511554 0 0 1 149.9829036680828,-49.77980561348318 L 149.9338220102108,-50.778600382622756 A 285.04759045511554 285.04759045511554 0 0 0 21.40063509461097,-12.933012701892217 Z M 171.9657895341475,-51.00870023642227 L 171.93757894938466,-50.0090982341697 A 284.04759045511554 284.04759045511554 0 0 1 300.77956190277837,-14.979573303720947 L 299.3341513147709,-12.350735493570621 L 307.15441855779704,-12.045088233395287 L 302.70677602012165,-18.484690383921382 L 301.2613654321142,-15.855852573771056 A 285.04759045511554 285.04759045511554 0 0 0 171.9657895341475,-51.00870023642227"/><text text-anchor="middle" pointer-events="none" font-size="8px" fill="#000000" x="160.95280337289836" y="-47.60663125842291" transform="rotate(180 160.95280337289836 -50.60663125842291)" font-family="Helvetica Neue, Helvetica, Arial, sans-serif">属于</text></g><g class="relationship" transform="translate(-348.28340645274824 -133.13904062857074) rotate(358.39355747168054)"><path class="b-outline" fill="#A5ABB6" stroke="none" d="M 25 0.5 L 80.62468850044532 0.5 L 80.62468850044532 -0.5 L 25 -0.5 Z M 102.62468850044532 0.5 L 158.24937700089063 0.5 L 158.24937700089063 3.5 L 165.24937700089063 0 L 158.24937700089063 -3.5 L 158.24937700089063 -0.5 L 102.62468850044532 -0.5 Z"/><text text-anchor="middle" pointer-events="none" font-size="8px" fill="#000000" x="91.62468850044532" y="3" font-family="Helvetica Neue, Helvetica, Arial, sans-serif">属于</text></g><g class="relationship" transform="translate(-348.28340645274824 -133.13904062857074) rotate(461.29717187646486)"><path class="b-outline" fill="#A5ABB6" stroke="none" d="M 25 0.5 L 73.65909190225257 0.5 L 73.65909190225257 -0.5 L 25 -0.5 Z M 95.65909190225257 0.5 L 144.31818380450514 0.5 L 144.31818380450514 3.5 L 151.31818380450514 0 L 144.31818380450514 -3.5 L 144.31818380450514 -0.5 L 95.65909190225257 -0.5 Z"/><text text-anchor="middle" pointer-events="none" font-size="8px" fill="#000000" x="84.65909190225257" y="3" transform="rotate(180 84.65909190225257 0)" font-family="Helvetica Neue, Helvetica, Arial, sans-serif">属于</text></g><g class="relationship" transform="translate(-53.772405721127654 42.3366454339554) rotate(210.7873518078577)"><path class="b-outline" fill="#A5ABB6" stroke="none" d="M 24.018736134675446,-6.953439040707552 L 24.277555179777966,-5.987513214418485 A 566.2358578719414 566.2358578719414 0 0 1 148.91791482292933,-24.85739160298033 L 148.87921670077858,-25.856642550111246 A 567.2358578719414 567.2358578719414 0 0 0 24.018736134675446,-6.953439040707552 Z M 186.90510715338712,-26.053712316981773 L 186.87676809880637,-25.05411394864302 A 566.2358578719414 566.2358578719414 0 0 1 311.7060142454533,-7.477115660167954 L 310.95963356466467,-4.571446050706893 L 318.6103067809938,-6.219839006571471 L 312.7011884865047,-11.351341806116034 L 311.9548078057161,-8.445672196654973 A 567.2358578719414 567.2358578719414 0 0 0 186.90510715338712,-26.053712316981773"/><text text-anchor="middle" pointer-events="none" font-size="8px" fill="#000000" x="167.89310128865455" y="-22.773921522056185" transform="rotate(180 167.89310128865455 -25.773921522056185)" font-family="Helvetica Neue, Helvetica, Arial, sans-serif">采购买入</text></g><g class="relationship" transform="translate(-53.772405721127654 42.3366454339554) rotate(355.68721888996936)"><path class="b-outline" fill="#A5ABB6" stroke="none" d="M 6.953439040707552 24.018736134675446 L 17.306200844808384 62.65576918623819 A 17.916697508022974 17.916697508022974 0 1 1 -17.306200844808384 62.65576918623819 L -8.765172356425198 30.780216918698923 L -4.901469051268926 31.815493099109005 L -6.4704761275630185 24.148145657226706 L -11.662949835292403 30.00375978339136 L -7.79924653013613 31.039035963801442 L -16.340275018519314 62.91458823134071 A 16.916697508022974 16.916697508022974 0 1 0 16.340275018519314 62.91458823134071 L 5.987513214418485 24.277555179777966 Z"/><text text-anchor="middle" pointer-events="none" font-size="8px" fill="#000000" x="0" y="94.20964923467838" font-family="Helvetica Neue, Helvetica, Arial, sans-serif">并购</text></g><g class="relationship" transform="translate(-53.772405721127654 42.3366454339554) rotate(379.19764962859443)"><path class="b-outline" fill="#A5ABB6" stroke="none" d="M 6.953439040707552 24.018736134675446 L 17.306200844808384 62.65576918623819 A 17.916697508022974 17.916697508022974 0 1 1 -17.306200844808384 62.65576918623819 L -8.765172356425198 30.780216918698923 L -4.901469051268926 31.815493099109005 L -6.4704761275630185 24.148145657226706 L -11.662949835292403 30.00375978339136 L -7.79924653013613 31.039035963801442 L -16.340275018519314 62.91458823134071 A 16.916697508022974 16.916697508022974 0 1 0 16.340275018519314 62.91458823134071 L 5.987513214418485 24.277555179777966 Z"/><text text-anchor="middle" pointer-events="none" font-size="8px" fill="#000000" x="0" y="94.20964923467838" font-family="Helvetica Neue, Helvetica, Arial, sans-serif">客户</text></g><g class="relationship" transform="translate(-53.772405721127654 42.3366454339554) rotate(375.15592667409413)"><path class="b-outline" fill="#A5ABB6" stroke="none" d="M 25 0.5 L 100.66651761741817 0.5 L 100.66651761741817 -0.5 L 25 -0.5 Z M 122.66651761741817 0.5 L 198.33303523483633 0.5 L 198.33303523483633 3.5 L 205.33303523483633 0 L 198.33303523483633 -3.5 L 198.33303523483633 -0.5 L 122.66651761741817 -0.5 Z"/><text text-anchor="middle" pointer-events="none" font-size="8px" fill="#000000" x="111.66651761741817" y="3" font-family="Helvetica Neue, Helvetica, Arial, sans-serif">开展</text></g></g><g class="layer nodes"><g class="node" aria-label="graph-node-20" transform="translate(-158.10880333210994,-138.47249890015414)"><circle class="b-outline" cx="0" cy="0" r="25" fill="#ECB5C9" stroke="#da7298" stroke-width="2px"/><text class="caption" text-anchor="middle" pointer-events="none" x="0" y="5" font-size="10px" fill="#2A2C34" font-family="Helvetica Neue, Helvetica, Arial, sans-serif"> 品牌</text></g><g class="node" aria-label="graph-node-14" transform="translate(-348.28340645274824,-133.13904062857074)"><circle class="b-outline" cx="0" cy="0" r="25" fill="#57C7E3" stroke="#23b3d7" stroke-width="2px"/><text class="caption" text-anchor="middle" pointer-events="none" x="0" y="5" font-size="10px" fill="#2A2C34" font-family="Helvetica Neue, Helvetica, Arial, sans-serif"> 产品</text></g><g class="node" aria-label="graph-node-18" transform="translate(83.4556422581983,-7.887173902441879)"><circle class="b-outline" cx="0" cy="0" r="25" fill="#FFC454" stroke="#d7a013" stroke-width="2px"/><text class="caption" text-anchor="middle" pointer-events="none" x="0" y="5" font-size="10px" fill="#2A2C34" font-family="Helvetica Neue, Helvetica, Arial, sans-serif"> 文章</text></g><g class="node" aria-label="graph-node-11" transform="translate(7.215694685588975,-92.4017925893392)"><circle class="b-outline" cx="0" cy="0" r="25" fill="#F79767" stroke="#f36924" stroke-width="2px"/><text class="caption" text-anchor="middle" pointer-events="none" x="0" y="5" font-size="10px" fill="#FFFFFF" font-family="Helvetica Neue, Helvetica, Arial, sans-serif"> 人物</text></g><g class="node" aria-label="graph-node-16" transform="translate(-53.772405721127654,42.3366454339554)"><circle class="b-outline" cx="0" cy="0" r="25" fill="#8DCC93" stroke="#5db665" stroke-width="2px"/><text class="caption" text-anchor="middle" pointer-events="none" x="0" y="5" font-size="10px" fill="#2A2C34" font-family="Helvetica Neue, Helvetica, Arial, sans-serif"> 机构</text></g><g class="node" aria-label="graph-node-17" transform="translate(-209.51437214760048,130.93535200173454)"><circle class="b-outline" cx="0" cy="0" r="25" fill="#DA7194" stroke="#cc3c6c" stroke-width="2px"/><text class="caption" text-anchor="middle" pointer-events="none" x="0" y="5" font-size="10px" fill="#FFFFFF" font-family="Helvetica Neue, Helvetica, Arial, sans-serif"> 风险</text></g><g class="node" aria-label="graph-node-19" transform="translate(-60.43260004626241,261.0708247875613)"><circle class="b-outline" cx="0" cy="0" r="25" fill="#569480" stroke="#447666" stroke-width="2px"/><text class="caption" text-anchor="middle" pointer-events="none" x="0" y="5" font-size="10px" fill="#FFFFFF" font-family="Helvetica Neue, Helvetica, Arial, sans-serif"> 指标</text></g><g class="node" aria-label="graph-node-12" transform="translate(-382.8237403217018,39.762860102278594)"><circle class="b-outline" cx="0" cy="0" r="25" fill="#D9C8AE" stroke="#c0a378" stroke-width="2px"/><text class="caption" text-anchor="middle" pointer-events="none" x="0" y="5" font-size="10px" fill="#2A2C34" font-family="Helvetica Neue, Helvetica, Arial, sans-serif"> 行业</text></g><g class="node" aria-label="graph-node-13" transform="translate(168.54916085145283,102.55647736004119)"><circle class="b-outline" cx="0" cy="0" r="25" fill="#4C8EDA" stroke="#2870c2" stroke-width="2px"/><text class="caption" text-anchor="middle" pointer-events="none" x="0" y="5" font-size="10px" fill="#FFFFFF" font-family="Helvetica Neue, Helvetica, Arial, sans-serif"> 业务</text></g><g class="node" aria-label="graph-node-15" transform="translate(-201.13968367313524,201.99185148916945)"><circle class="b-outline" cx="0" cy="0" r="25" fill="#F16667" stroke="#eb2728" stroke-width="2px"/><text class="caption" text-anchor="middle" pointer-events="none" x="0" y="5" font-size="10px" fill="#FFFFFF" font-family="Helvetica Neue, Helvetica, Arial, sans-serif"> 研报</text></g></g></svg>